<?xml version="1.0" encoding="utf-8"?>
<!-- Generator: Adobe Illustrator 23.0.2, SVG Export Plug-In . SVG Version: 6.00 Build 0)  -->
<svg version="1.1" id="Layer_1" xmlns="http://www.w3.org/2000/svg" xmlns:xlink="http://www.w3.org/1999/xlink" x="0px" y="0px"
	 viewBox="0 0 400 298" style="enable-background:new 0 0 400 298;" xml:space="preserve">
<style type="text/css">
	.st0{fill:#0275D8;}
	.st1{fill:#3333CC;}
	.st2{fill:#005CBF;}
</style>
<g>
	<path class="st0" d="M227.9,82.1l-13.7,23.7l-46.8-81.1L23.7,273.6H121c0,13.1,10.6,23.7,23.7,23.7h-121c-8.5,0-16.3-4.5-20.5-11.9
		s-4.2-16.4,0-23.7L146.9,12.8C151.1,5.5,159,1,167.4,1c8.5,0,16.3,4.5,20.5,11.9C188,12.8,227.9,82.1,227.9,82.1z"/>
	<path class="st1" d="M331.7,261.7l-90.1-156l-13.7-23.7l-13.7,23.7l-90,156c-4.2,7.3-4.2,16.4,0,23.7c4.2,7.3,12.1,11.9,20.5,11.9
		h166.4c8.5,0,16.3-4.5,20.5-11.8S335.9,269.1,331.7,261.7L331.7,261.7L331.7,261.7z M144.7,273.6l83.2-144.1l83.2,144.1
		L144.7,273.6L144.7,273.6z"/>
	<path class="st2" d="M396,285.4c-4.2,7.3-12.1,11.9-20.5,11.9h-64.4c13.1,0,23.7-10.6,23.7-23.7h40.7L260.1,73.7l-18.5,32
		l-13.7-23.7l11.7-20.2c4.2-7.3,12.1-11.9,20.5-11.9c8.5,0,16.3,4.5,20.5,11.9L396,261.7C400.3,269.1,400.3,278.1,396,285.4z"/>
</g>
</svg>
